<?xml version="1.0" encoding="UTF-8"?>
<!DOCTYPE svg PUBLIC "-//W3C//DTD SVG 1.1//EN" "http://www.w3.org/Graphics/SVG/1.1/DTD/svg11.dtd">
<!-- Creator: CorelDRAW 2018 (64 Bit) -->
<svg xmlns="http://www.w3.org/2000/svg" xml:space="preserve" width="99.8226mm" height="99.8226mm" version="1.1" style="shape-rendering:geometricPrecision; text-rendering:geometricPrecision; image-rendering:optimizeQuality; fill-rule:evenodd; clip-rule:evenodd"
viewBox="0 0 5234.51 5234.51"
 xmlns:xlink="http://www.w3.org/1999/xlink">
 <defs>
  <style type="text/css">
   <![CDATA[
    .str1 {stroke:#606062;stroke-width:18.5;stroke-miterlimit:4}
    .str0 {stroke:#F7F1E5;stroke-width:10.49;stroke-miterlimit:22.9256}
    .fil0 {fill:#F7F1E5}
    .fil2 {fill:#606062;fill-rule:nonzero}
    .fil1 {fill:#373435;fill-rule:nonzero}
    .fil3 {fill:url(#id0);fill-rule:nonzero}
   ]]>
  </style>
  <linearGradient id="id0" gradientUnits="userSpaceOnUse" x1="2605.24" y1="622.84" x2="2617.25" y2="3482.3">
   <stop offset="0" style="stop-opacity:1; stop-color:#BA2F18"/>
   <stop offset="1" style="stop-opacity:1; stop-color:#C9AC8E"/>
  </linearGradient>
 </defs>
 <g id="Capa_x0020_1">
  <metadata id="CorelCorpID_0Corel-Layer"/>
  <rect class="fil0 str0" x="5.24" y="5.24" width="5224.02" height="5224.02"/>
  <path class="fil1" d="M537.75 4363.84l-55.95 0 0 18.37 53.28 0c8.38,0 14.01,1.44 16.96,4.28 2.95,2.87 4.42,8.16 4.42,15.95l0 11.75c0,7.72 -1.46,13.05 -4.42,15.89 -2.95,2.84 -8.58,4.28 -16.96,4.28l-52.78 0c-8.36,0 -14.02,-1.44 -16.94,-4.28 -2.95,-2.84 -4.42,-8.16 -4.42,-15.89l0 -2.34 17.55 -3.64 0 10.1 60.42 0 0 -19.53 -53.3 0c-8.31,0 -13.91,-1.44 -16.83,-4.28 -2.9,-2.84 -4.36,-8.14 -4.36,-15.89l0 -9.47c0,-7.75 1.46,-13.05 4.36,-15.92 2.92,-2.84 8.52,-4.27 16.83,-4.27l48.5 0c8.03,0 13.58,1.38 16.61,4.11 3.06,2.76 4.58,7.61 4.58,14.62l0 1.79 -17.55 4.14 0 -9.77zm53.63 70.52l0 -70.02 17.05 0 0 70.02 -17.05 0zm112.89 -57.44l-48.17 0 0 14.73 45.58 0c7.15,0 11.97,1.16 14.46,3.45 2.45,2.29 3.7,6.62 3.7,13.05l0 9.65c0,6.4 -1.27,10.76 -3.78,13.08 -2.54,2.32 -7.31,3.48 -14.37,3.48l-45.41 0c-7.23,0 -12.14,-1.16 -14.71,-3.48 -2.56,-2.32 -3.83,-6.68 -3.83,-13.08l0 -1.96 15.23 -2.84 0 8.27 51.48 0 0 -16.06 -45.36 0c-7.17,0 -12.03,-1.16 -14.57,-3.5 -2.54,-2.34 -3.81,-6.71 -3.81,-13.08l0 -7.81c0,-6.32 1.27,-10.62 3.81,-12.97 2.54,-2.34 7.39,-3.53 14.57,-3.53l41.55 0c7.04,0 11.86,1.13 14.46,3.37 2.62,2.23 3.92,6.18 3.92,11.86l0 1.68 -14.74 3.11 0 -7.45zm86.77 0l0 57.44 -17.05 0 0 -57.44 -33.77 0 0 -12.58 84.76 0 0 12.58 -33.93 0zm55.92 57.44l0 -70.02 75.15 0 0 12.41 -57.94 0 0 15.23 33.77 0 0 12.08 -33.77 0 0 17.22 58.77 0 0 13.08 -75.98 0zm100.62 0l0 -70.02 13.74 0 34.24 41.55 34.13 -41.55 13.74 0 0 70.02 -15.89 0 0 -48.2 -31.26 39.78 -3.31 0 -31.64 -38.65 0 47.07 -13.74 0zm116.4 0l41.55 -70.02 16.41 0 42.19 70.02 -19.15 0 -8.83 -15.4 -46.3 0 -8.83 15.4 -17.05 0zm33.14 -28.14l32.09 0 -16.31 -29.19 -15.78 29.19zm165.7 15.07l22.02 0c12.03,0 20.45,-1.74 25.24,-5.24 4.8,-3.5 7.2,-9.41 7.2,-17.71 0,-7.2 -1.98,-12.58 -5.98,-16.11 -4,-3.53 -10.13,-5.3 -18.37,-5.3l-30.1 0 0 44.36zm-17.22 13.08l0 -70.02 47.15 0c13.54,0 23.95,3 31.21,9.02 7.25,6.01 10.87,14.59 10.87,25.74 0,11.75 -3.84,20.58 -11.54,26.46 -7.67,5.87 -19.28,8.8 -34.81,8.8l-42.88 0zm114.86 0l0 -70.02 75.15 0 0 12.41 -57.94 0 0 15.23 33.77 0 0 12.08 -33.77 0 0 17.22 58.77 0 0 13.08 -75.98 0zm251.12 -70.19l-62.08 0 0 54.13 62.08 0 0 -19.04 -32.44 0 0 -14.57 51.81 0 0 29.46c0,7.81 -1.46,13.13 -4.38,15.95 -2.9,2.84 -8.53,4.25 -16.83,4.25l-58.93 0c-8.3,0 -13.91,-1.41 -16.8,-4.25 -2.89,-2.82 -4.36,-8.14 -4.36,-15.95l0 -45.03c0,-7.75 1.46,-13.05 4.36,-15.92 2.89,-2.84 8.5,-4.27 16.8,-4.27l58.93 0c8.2,0 13.8,1.41 16.77,4.2 2.95,2.81 4.44,7.86 4.44,15.17l0 1.96 -19.37 3.5 0 -9.6zm55.12 70.19l0 -70.02 75.15 0 0 12.41 -57.94 0 0 15.23 33.77 0 0 12.08 -33.77 0 0 17.22 58.77 0 0 13.08 -75.98 0zm165.34 -57.44l-48.17 0 0 14.73 45.58 0c7.15,0 11.97,1.16 14.46,3.45 2.45,2.29 3.7,6.62 3.7,13.05l0 9.65c0,6.4 -1.27,10.76 -3.78,13.08 -2.54,2.32 -7.31,3.48 -14.37,3.48l-45.41 0c-7.23,0 -12.14,-1.16 -14.71,-3.48 -2.56,-2.32 -3.83,-6.68 -3.83,-13.08l0 -1.96 15.23 -2.84 0 8.27 51.48 0 0 -16.06 -45.36 0c-7.17,0 -12.03,-1.16 -14.57,-3.5 -2.54,-2.34 -3.81,-6.71 -3.81,-13.08l0 -7.81c0,-6.32 1.27,-10.62 3.81,-12.97 2.54,-2.34 7.39,-3.53 14.57,-3.53l41.55 0c7.04,0 11.86,1.13 14.46,3.37 2.62,2.23 3.92,6.18 3.92,11.86l0 1.68 -14.74 3.11 0 -7.45zm86.77 0l0 57.44 -17.05 0 0 -57.44 -33.77 0 0 -12.58 84.76 0 0 12.58 -33.93 0zm55.92 57.44l0 -70.02 17.05 0 0 70.02 -17.05 0zm63.57 -13.41l56.45 0 0 -43.7 -56.45 0 0 43.7zm-17.05 -40.06c0,-6.4 1.24,-10.73 3.72,-13.08 2.49,-2.32 7.28,-3.48 14.46,-3.48l54.18 0c7.23,0 12.06,1.16 14.51,3.48 2.45,2.34 3.67,6.68 3.67,13.08l0 36.91c0,6.4 -1.24,10.76 -3.75,13.08 -2.51,2.32 -7.31,3.48 -14.43,3.48l-54.18 0c-7.17,0 -11.97,-1.16 -14.46,-3.48 -2.49,-2.32 -3.72,-6.68 -3.72,-13.08l0 -36.91zm33.43 -25.66l16.5 -27.97 17.93 0 -23.84 27.97 -10.6 0zm86.55 79.13l0 -70.02 11.73 0 59.46 46.49 0 -46.49 15.39 0 0 70.02 -11.78 0 -59.23 -47.23 0 47.23 -15.56 0zm199.14 -13.08l22.02 0c12.03,0 20.45,-1.74 25.24,-5.24 4.8,-3.5 7.2,-9.41 7.2,-17.71 0,-7.2 -1.98,-12.58 -5.98,-16.11 -4,-3.53 -10.13,-5.3 -18.37,-5.3l-30.1 0 0 44.36zm-17.22 13.08l0 -70.02 47.15 0c13.54,0 23.95,3 31.21,9.02 7.25,6.01 10.87,14.59 10.87,25.74 0,11.75 -3.84,20.58 -11.54,26.46 -7.67,5.87 -19.28,8.8 -34.81,8.8l-42.88 0zm114.86 0l0 -70.02 75.15 0 0 12.41 -57.94 0 0 15.23 33.77 0 0 12.08 -33.77 0 0 17.22 58.77 0 0 13.08 -75.98 0zm171 0l0 -85.42 19.86 0 0 85.42 -19.86 0zm57.25 0l0 -70.02 11.73 0 59.46 46.49 0 -46.49 15.39 0 0 70.02 -11.78 0 -59.23 -47.23 0 47.23 -15.56 0zm179.25 -57.11l-46.02 0 0 43.7 46.02 0 0 -14.9 17.22 3.48 0 8.27c0,6.35 -1.27,10.71 -3.81,13.05 -2.54,2.34 -7.37,3.5 -14.54,3.5l-43.75 0c-7.06,0 -11.86,-1.16 -14.37,-3.48 -2.54,-2.32 -3.81,-6.68 -3.81,-13.08l0 -36.91c0,-6.4 1.24,-10.73 3.75,-13.08 2.51,-2.32 7.32,-3.48 14.43,-3.48l43.75 0c7.23,0 12.09,1.16 14.6,3.48 2.51,2.34 3.75,6.68 3.75,13.08l0 6.76 -17.22 2.51 0 -12.91zm45.19 57.11l0 -70.02 17.05 0 0 70.02 -17.05 0zm65.39 -13.08l22.02 0c12.03,0 20.45,-1.74 25.24,-5.24 4.8,-3.5 7.2,-9.41 7.2,-17.71 0,-7.2 -1.98,-12.58 -5.98,-16.11 -4,-3.53 -10.13,-5.3 -18.37,-5.3l-30.1 0 0 44.36zm-17.22 13.08l0 -70.02 47.15 0c13.54,0 23.95,3 31.21,9.02 7.25,6.01 10.87,14.59 10.87,25.74 0,11.75 -3.84,20.58 -11.54,26.46 -7.67,5.87 -19.28,8.8 -34.81,8.8l-42.88 0zm114.86 0l0 -70.02 75.15 0 0 12.41 -57.94 0 0 15.23 33.77 0 0 12.08 -33.77 0 0 17.22 58.77 0 0 13.08 -75.98 0zm100.62 0l0 -70.02 11.73 0 59.46 46.49 0 -46.49 15.39 0 0 70.02 -11.78 0 -59.23 -47.23 0 47.23 -15.56 0zm159.55 -57.44l0 57.44 -17.05 0 0 -57.44 -33.77 0 0 -12.58 84.76 0 0 12.58 -33.93 0zm55.92 57.44l0 -70.02 75.15 0 0 12.41 -57.94 0 0 15.23 33.77 0 0 12.08 -33.77 0 0 17.22 58.77 0 0 13.08 -75.98 0zm165.34 -57.44l-48.17 0 0 14.73 45.58 0c7.15,0 11.97,1.16 14.46,3.45 2.45,2.29 3.7,6.62 3.7,13.05l0 9.65c0,6.4 -1.27,10.76 -3.78,13.08 -2.54,2.32 -7.31,3.48 -14.37,3.48l-45.41 0c-7.23,0 -12.14,-1.16 -14.71,-3.48 -2.56,-2.32 -3.83,-6.68 -3.83,-13.08l0 -1.96 15.23 -2.84 0 8.27 51.48 0 0 -16.06 -45.36 0c-7.17,0 -12.03,-1.16 -14.57,-3.5 -2.54,-2.34 -3.81,-6.71 -3.81,-13.08l0 -7.81c0,-6.32 1.27,-10.62 3.81,-12.97 2.54,-2.34 7.39,-3.53 14.57,-3.53l41.55 0c7.04,0 11.86,1.13 14.46,3.37 2.62,2.23 3.92,6.18 3.92,11.86l0 1.68 -14.74 3.11 0 -7.45zm126.36 44.36l22.02 0c12.03,0 20.45,-1.74 25.24,-5.24 4.8,-3.5 7.2,-9.41 7.2,-17.71 0,-7.2 -1.98,-12.58 -5.98,-16.11 -4,-3.53 -10.13,-5.3 -18.37,-5.3l-30.1 0 0 44.36zm-17.22 13.08l0 -70.02 47.15 0c13.54,0 23.95,3 31.21,9.02 7.25,6.01 10.87,14.59 10.87,25.74 0,11.75 -3.84,20.58 -11.54,26.46 -7.67,5.87 -19.28,8.8 -34.81,8.8l-42.88 0zm114.86 0l0 -70.02 75.15 0 0 12.41 -57.94 0 0 15.23 33.77 0 0 12.08 -33.77 0 0 17.22 58.77 0 0 13.08 -75.98 0zm245 -70.52l-55.95 0 0 18.37 53.28 0c8.38,0 14.01,1.44 16.96,4.28 2.95,2.87 4.42,8.16 4.42,15.95l0 11.75c0,7.72 -1.46,13.05 -4.42,15.89 -2.95,2.84 -8.58,4.28 -16.96,4.28l-52.78 0c-8.36,0 -14.02,-1.44 -16.94,-4.28 -2.95,-2.84 -4.42,-8.16 -4.42,-15.89l0 -2.34 17.55 -3.64 0 10.1 60.42 0 0 -19.53 -53.3 0c-8.31,0 -13.91,-1.44 -16.83,-4.28 -2.9,-2.84 -4.36,-8.14 -4.36,-15.89l0 -9.47c0,-7.75 1.46,-13.05 4.36,-15.92 2.92,-2.84 8.52,-4.27 16.83,-4.27l48.5 0c8.03,0 13.58,1.38 16.61,4.11 3.06,2.76 4.58,7.61 4.58,14.62l0 1.79 -17.55 4.14 0 -9.77zm53.63 70.52l0 -70.02 75.15 0 0 12.41 -57.94 0 0 15.23 33.77 0 0 12.08 -33.77 0 0 17.22 58.77 0 0 13.08 -75.98 0zm169.32 -57.11l-53.3 0 0 43.7 53.3 0 0 -14.9 -27.81 0 0 -12.42 44.53 0 0 24.17c0,6.4 -1.24,10.76 -3.75,13.08 -2.51,2.32 -7.31,3.48 -14.43,3.48l-50.71 0c-7.12,0 -11.92,-1.16 -14.43,-3.48 -2.51,-2.32 -3.75,-6.68 -3.75,-13.08l0 -36.94c0,-6.37 1.24,-10.73 3.75,-13.05 2.51,-2.32 7.32,-3.48 14.43,-3.48l50.71 0c7.06,0 11.87,1.13 14.37,3.39 2.54,2.29 3.81,6.37 3.81,12.33l0 1.82 -16.72 2.82 0 -7.45zm62.88 -12.91l0 56.94 48.67 0 0 -56.94 17.22 0 0 53.47c0,6.35 -1.27,10.71 -3.83,13.05 -2.57,2.34 -7.43,3.5 -14.6,3.5l-46.24 0c-7.14,0 -11.97,-1.16 -14.48,-3.48 -2.51,-2.32 -3.78,-6.68 -3.78,-13.08l0 -53.47 17.05 0zm152.82 12.08l-38.93 0 0 19.37 38.93 0c2.95,0 4.99,-0.45 6.1,-1.3 1.1,-0.85 1.66,-2.32 1.66,-4.36l0 -8.05c0,-2.05 -0.56,-3.5 -1.66,-4.36 -1.11,-0.85 -3.15,-1.3 -6.1,-1.3zm-55.82 57.94l0 -70.02 63.07 0c5.76,0 9.93,1.07 12.52,3.2 2.57,2.12 3.86,5.6 3.86,10.43l0 16.44c0,4.77 -1.3,8.19 -3.86,10.29 -2.59,2.12 -6.76,3.17 -12.52,3.17l-9.6 0 33.27 26.49 -24.47 0 -29.33 -26.49 -16.06 0 0 26.49 -16.89 0zm107.57 0l0 -70.02 17.05 0 0 70.02 -17.05 0zm65.39 -13.08l22.02 0c12.03,0 20.45,-1.74 25.24,-5.24 4.8,-3.5 7.2,-9.41 7.2,-17.71 0,-7.2 -1.98,-12.58 -5.98,-16.11 -4,-3.53 -10.13,-5.3 -18.37,-5.3l-30.1 0 0 44.36zm-17.22 13.08l0 -70.02 47.15 0c13.54,0 23.95,3 31.21,9.02 7.25,6.01 10.87,14.59 10.87,25.74 0,11.75 -3.84,20.58 -11.54,26.46 -7.67,5.87 -19.28,8.8 -34.81,8.8l-42.88 0zm101.37 0l41.55 -70.02 16.41 0 42.19 70.02 -19.15 0 -8.83 -15.4 -46.3 0 -8.83 15.4 -17.05 0zm33.14 -28.14l32.09 0 -16.31 -29.19 -15.78 29.19zm101.61 15.07l22.02 0c12.03,0 20.45,-1.74 25.24,-5.24 4.8,-3.5 7.2,-9.41 7.2,-17.71 0,-7.2 -1.98,-12.58 -5.98,-16.11 -4,-3.53 -10.13,-5.3 -18.37,-5.3l-30.1 0 0 44.36zm-17.22 13.08l0 -70.02 47.15 0c13.54,0 23.95,3 31.21,9.02 7.25,6.01 10.87,14.59 10.87,25.74 0,11.75 -3.84,20.58 -11.54,26.46 -7.67,5.87 -19.28,8.8 -34.81,8.8l-42.88 0z"/>
 </g>
 <g id="Default">
  <metadata id="CorelCorpID_1Corel-Layer"/>
  <polygon class="fil2 str1" points="3167.35,3891.05 3644.28,3891.05 3644.28,3414.12 2849.39,3414.12 2849.39,3970.53 3087.86,4209 3644.28,4209 3644.28,4050.02 3153.71,4050.02 3008.37,3904.69 3008.37,3573.09 3485.3,3573.09 3485.3,3732.07 3167.35,3732.07 "/>
  <polygon class="fil2 str1" points="4041.72,4209 4200.7,4209 4200.7,3573.09 4532.29,3573.09 4677.63,3718.44 4677.63,4209 4836.61,4209 4836.61,3652.58 4598.15,3414.12 4041.72,3414.12 "/>
  <polygon class="fil2 str1" points="464.73,4209 623.71,4209 623.71,3573.09 955.31,3573.09 1100.65,3718.44 1100.65,4209 1259.63,4209 1259.63,3652.58 1021.16,3414.12 464.73,3414.12 "/>
  <polygon class="fil2 str1" points="2451.96,3414.12 2451.96,3573.09 1816.04,3573.09 1816.04,3904.69 1961.39,4050.02 2292.98,4050.02 2292.98,3732.07 2451.96,3732.07 2451.96,4209 1895.54,4209 1657.07,3970.53 1657.07,3414.12 "/>
  <path class="fil3" d="M2945.44 2854.09l0 -290.82 357.03 0 0 435.05 -305.01 177.33 -307.05 -170.36 0 -1024.06 694.17 0 0 474.96 -501.11 0 0 -274.85 119.23 0 0 115.87 262.65 0 0 -196.74 -455.7 0 0 834.63 186.45 103.42 187.15 -108.8 0 -207.48 -118.56 0 0 131.85 -119.23 0zm436.52 -1648.38l0 -137.92 449.37 261.26 0 532.95 -407 0 0 -312.2 119.23 0 0 153.23 168.55 0 0 -305.38 -330.14 -191.93zm0 1471.56l0 137.92 449.37 -261.27 0 -612.44 -367.26 0 0 391.71 119.23 0 0 -232.72 128.8 0 0 384.85 -330.14 191.94zm-436.52 -1648.39l0 290.82 357.03 0 0 -435.05 -305.01 -177.32 -307.05 170.35 0 1024.07 654.42 0 0 -474.96 -461.37 0 0 274.85 119.23 0 0 -115.88 222.9 0 0 196.75 -415.96 0 0 -834.63 186.45 -103.43 187.15 108.81 0 207.47 -118.56 0 0 -131.84 -119.23 0zm-1026.06 1648.39l0 137.92 -449.37 -261.27 0 -532.94 407.01 0 0 312.21 -119.24 0 0 -153.23 -168.54 0 0 305.37 330.14 191.94zm0 -1471.56l0 -137.92 -449.37 261.26 0 612.44 367.27 0 0 -391.69 -119.23 0 0 232.72 -128.8 0 0 -384.87 330.14 -191.93zm436.52 -216.56l0 290.82 -357.03 0 0 -395.31 305.01 -177.32 307.05 170.35 0 984.32 -694.17 0 0 -474.96 501.11 0 0 274.85 -119.23 0 0 -115.87 -262.64 0 0 196.75 455.69 0 0 -794.89 -186.43 -103.43 -187.15 108.81 0 167.73 118.56 0 0 -131.84 119.23 0zm0 1825.19l0 -290.81 -357.03 0 0 474.79 305.01 177.33 307.05 -170.36 0 -1063.81 -654.43 0 0 474.96 461.37 0 0 -274.85 -119.23 0 0 115.87 -222.9 0 0 -196.75 415.96 0 0 874.37 -186.43 103.42 -187.15 -108.8 0 -247.22 118.56 0 0 131.84 119.23 0z"/>
 </g>
</svg>
